<?xml version="1.0" standalone="no"?><!DOCTYPE svg PUBLIC "-//W3C//DTD SVG 1.1//EN" "http://www.w3.org/Graphics/SVG/1.1/DTD/svg11.dtd"><svg t="1720158754615" class="icon" viewBox="0 0 1024 1024" version="1.1" xmlns="http://www.w3.org/2000/svg" p-id="1171" xmlns:xlink="http://www.w3.org/1999/xlink" width="200" height="200"><path d="M579.490948 451.353633l-44.303874 81.611065c-11.81324 22.130812-19.012725 36.833985-21.666056 44.117971h-0.743609c-7.799442-17.711409-29.786602-59.615454-66.00373-125.729036h-41.642092l77.478966 133.072173h-63.536301v29.406347h74.46228v40.56893h-74.46228v29.769701h74.46228v58.998598h36.977637v-58.998598h71.808948v-29.769701h-71.808948v-40.56893h71.808948v-29.406347h-61.651928l78.222574-133.072173h-39.402815z" fill="#f17a04" p-id="1172"></path><path d="M512.00845 0C229.242759 0 0 229.242759 0 512.00845s229.242759 511.99155 512.00845 511.99155c24.277137 0 48.123319-1.799871 71.513195-5.07006a512.802759 512.802759 0 0 0 56.184714-11.103431c179.192817-46.010794 320.461587-186.510604 367.452592-365.314717 0.85346-3.219488 1.605519-6.489677 2.391378-9.717615a512.498556 512.498556 0 0 0 14.458121-120.777277C1024.0169 229.242759 794.774141 0 512.00845 0z m295.128187 676.058689c-5.11231 28.451486-15.22708 55.356604-30.302058 80.673103-15.074978 25.282699-35.135515 47.36281-60.173161 66.147381-25.020746 18.784572-54.756647 33.698998-89.199254 44.79398-34.434157 11.103431-73.524319 16.655147-117.371887 16.655147-44.962981 0-84.788302-6.388275-119.526662-19.190177-34.71301-12.793451-64.136258-29.457048-88.337344-49.94009-24.175736-20.483042-43.365912-43.374363-57.612781-68.707762-14.213068-25.333399-23.618029-50.523147-28.164182-75.535443-5.11231-27.89378-5.830569-54.629896-2.112525-80.259048 3.667343-25.561552 10.385173-49.644337 20.052087-72.104702a284.185308 284.185308 0 0 1 36.276278-61.871631 345.803436 345.803436 0 0 1 47.37971-50.371045 1130.462808 1130.462808 0 0 0 40.121074-37.121289c11.923091-11.669588 21.894209-22.350514 29.862653-32.034329a546.442607 546.442607 0 0 0 21.497054-25.561552 579.761351 579.761351 0 0 0-11.272433-18.488818 299.843343 299.843343 0 0 0-12.049842-18.59867 388.020135 388.020135 0 0 1-11.196383-16.764998 134.779093 134.779093 0 0 0-20.930897-24.640491 294.54513 294.54513 0 0 0-22.773019-19.080326c-8.069845-5.560166-13.655361-13.190606-16.773448-22.789919-3.050486-9.624664-0.278853-17.821261 8.407849-24.640491 4.334901-3.101187 9.27821-4.360252 14.863726-3.726494 5.577066 0.625307 11.483686 1.850572 17.686059 3.726494 6.219273 1.833672 12.244195 3.726494 18.150814 5.560166 5.89817 1.867472 11.314684 2.180126 16.257992 0.954861 8.703603-1.884372 15.21018-5.146111 19.578882-9.802116 4.309551-4.622205 11.762539-10.385173 22.291363-17.195953 8.069845-4.968659 17.069202-6.667129 26.981169-5.112311s17.373405 4.816557 22.342064 9.751416c2.450529 3.134987 5.11231 5.762968 7.917743 7.934643 2.788533 2.146325 5.712267 4.174349 8.838805 6.024922 3.092737 2.475879 6.515027 4.639105 10.224621 6.515027 1.233715 0 2.788533-0.625307 4.656005-1.884373 3.734944-2.442079 8.686703-6.80233 14.914426-12.987803 7.410738-6.836131 14.889076-11.796339 22.282913-14.922876 7.486788-3.084286 17.398756-2.163226 29.786602 2.822333 6.227724 1.850572 11.171032 4.470103 14.889076 7.909293 3.743394 3.41384 7.300886 6.650229 10.731627 9.734515 3.41384 3.101187 7.131884 5.746068 11.137231 7.926194 4.047598 2.180126 9.176808 3.287089 15.353832 3.287089 6.193923 0 11.500586-0.954861 15.810137-2.788533a332.59593 332.59593 0 0 1 12.565298-5.146111c4.013797-1.521018 8.078295-2.627981 12.092093-3.270188 4.030698-0.574607 8.821904 0 14.432771 1.901272 6.193923 2.442079 10.385173 6.024921 12.539948 10.680926 2.171676 4.656005 2.780083 9.455662 1.850572 14.424321-0.912611 4.968659-3.075836 9.954218-6.506577 14.889076a41.996996 41.996996 0 0 1-12.565299 12.100543c-11.754089 7.427638-20.753445 15.032728-26.947368 22.806819a555.602515 555.602515 0 0 0-18.63247 24.640491 667.084683 667.084683 0 0 0-10.233071 14.889076c-3.701144 5.560166-7.131884 11.154132-10.224621 16.748098-2.906834 5.332013-6.160123 10.266871-9.421861 15.20173h2.036474a360.312258 360.312258 0 0 0 22.688518 26.144609c8.509251 9.675364 19.088776 20.601343 31.586473 32.879338 12.514598 12.227294 27.031869 25.139047 43.526464 38.819759 13.655361 11.965341 27.733228 26.043208 42.2505 42.250499 14.517272 16.224192 27.175521 35.135515 38.000099 56.759321 10.790778 21.623806 18.328267 46.50935 22.629367 74.665082 4.25885 28.172633 3.540592 59.590104-2.163226 94.320015z" fill="#f17a04" p-id="1173"></path></svg>