<?xml version="1.0" standalone="no"?><!DOCTYPE svg PUBLIC "-//W3C//DTD SVG 1.1//EN" "http://www.w3.org/Graphics/SVG/1.1/DTD/svg11.dtd"><svg t="1720163782879" class="icon" viewBox="0 0 1024 1024" version="1.1" xmlns="http://www.w3.org/2000/svg" p-id="4122" xmlns:xlink="http://www.w3.org/1999/xlink" width="200" height="200"><path d="M204.8 1024a153.6 153.6 0 0 1-153.6-153.6V0h768a153.6 153.6 0 0 1 153.6 153.6v586.1376L686.2336 1024H204.8z m439.296-102.4L870.4 697.088V153.6a51.2 51.2 0 0 0-51.2-51.2H153.6v768a51.2 51.2 0 0 0 51.2 51.2h439.296z" fill="#666666" p-id="4123"></path><path d="M256 204.8m51.2 0l409.6 0q51.2 0 51.2 51.2l0 0q0 51.2-51.2 51.2l-409.6 0q-51.2 0-51.2-51.2l0 0q0-51.2 51.2-51.2Z" fill="#666666" p-id="4124"></path><path d="M256 409.6m51.2 0l307.2 0q51.2 0 51.2 51.2l0 0q0 51.2-51.2 51.2l-307.2 0q-51.2 0-51.2-51.2l0 0q0-51.2 51.2-51.2Z" fill="#666666" p-id="4125"></path><path d="M256 614.4m51.2 0l256 0q51.2 0 51.2 51.2l0 0q0 51.2-51.2 51.2l-256 0q-51.2 0-51.2-51.2l0 0q0-51.2 51.2-51.2Z" fill="#666666" p-id="4126"></path><path d="M614.4 972.8h102.4v-204.8h204.8v-102.4h-204.8a102.4 102.4 0 0 0-102.4 102.4v204.8z" fill="#666666" p-id="4127"></path></svg>